<?xml version="1.0" encoding="utf-8" standalone="no"?>
<!DOCTYPE svg PUBLIC "-//W3C//DTD SVG 1.1//EN"
  "http://www.w3.org/Graphics/SVG/1.1/DTD/svg11.dtd">
<svg xmlns:xlink="http://www.w3.org/1999/xlink" width="216pt" height="288pt" viewBox="0 0 216 288" xmlns="http://www.w3.org/2000/svg" version="1.1">
 <metadata>
  <rdf:RDF xmlns:dc="http://purl.org/dc/elements/1.1/" xmlns:cc="http://creativecommons.org/ns#" xmlns:rdf="http://www.w3.org/1999/02/22-rdf-syntax-ns#">
   <cc:Work>
    <dc:type rdf:resource="http://purl.org/dc/dcmitype/StillImage"/>
    <dc:date>2023-04-18T13:20:14.892260</dc:date>
    <dc:format>image/svg+xml</dc:format>
    <dc:creator>
     <cc:Agent>
      <dc:title>Matplotlib v3.5.3, https://matplotlib.org/</dc:title>
     </cc:Agent>
    </dc:creator>
   </cc:Work>
  </rdf:RDF>
 </metadata>
 <defs>
  <style type="text/css">*{stroke-linejoin: round; stroke-linecap: butt}</style>
 </defs>
 <g id="figure_1">
  <g id="patch_1">
   <path d="M 0 288 
L 216 288 
L 216 0 
L 0 0 
L 0 288 
z
" style="fill: none"/>
  </g>
  <g id="axes_1">
   <g id="patch_2">
    <path d="M 27 256.32 
L 194.4 256.32 
L 194.4 34.56 
L 27 34.56 
L 27 256.32 
z
" style="fill: none"/>
   </g>
   <g id="patch_3">
    <path d="M 34.609091 256.32 
L 49.437345 256.32 
L 49.437345 248.928 
L 34.609091 248.928 
z
" clip-path="url(#p2b4dfda2a0)" style="fill: #ff7f0e; opacity: 0.5"/>
   </g>
   <g id="patch_4">
    <path d="M 49.437345 256.32 
L 64.265598 256.32 
L 64.265598 234.144 
L 49.437345 234.144 
z
" clip-path="url(#p2b4dfda2a0)" style="fill: #ff7f0e; opacity: 0.5"/>
   </g>
   <g id="patch_5">
    <path d="M 64.265598 256.32 
L 79.093852 256.32 
L 79.093852 138.048 
L 64.265598 138.048 
z
" clip-path="url(#p2b4dfda2a0)" style="fill: #ff7f0e; opacity: 0.5"/>
   </g>
   <g id="patch_6">
    <path d="M 79.093852 256.32 
L 93.922106 256.32 
L 93.922106 86.304 
L 79.093852 86.304 
z
" clip-path="url(#p2b4dfda2a0)" style="fill: #ff7f0e; opacity: 0.5"/>
   </g>
   <g id="patch_7">
    <path d="M 93.922106 256.32 
L 108.750359 256.32 
L 108.750359 204.576 
L 93.922106 204.576 
z
" clip-path="url(#p2b4dfda2a0)" style="fill: #ff7f0e; opacity: 0.5"/>
   </g>
   <g id="patch_8">
    <path d="M 56.576874 256.32 
L 73.997326 256.32 
L 73.997326 241.536 
L 56.576874 241.536 
z
" clip-path="url(#p2b4dfda2a0)" style="fill: #2ca02c; opacity: 0.5"/>
   </g>
   <g id="patch_9">
    <path d="M 73.997326 256.32 
L 91.417778 256.32 
L 91.417778 197.184 
L 73.997326 197.184 
z
" clip-path="url(#p2b4dfda2a0)" style="fill: #2ca02c; opacity: 0.5"/>
   </g>
   <g id="patch_10">
    <path d="M 91.417778 256.32 
L 108.83823 256.32 
L 108.83823 167.616 
L 91.417778 167.616 
z
" clip-path="url(#p2b4dfda2a0)" style="fill: #2ca02c; opacity: 0.5"/>
   </g>
   <g id="patch_11">
    <path d="M 108.83823 256.32 
L 126.258682 256.32 
L 126.258682 182.4 
L 108.83823 182.4 
z
" clip-path="url(#p2b4dfda2a0)" style="fill: #2ca02c; opacity: 0.5"/>
   </g>
   <g id="patch_12">
    <path d="M 126.258682 256.32 
L 143.679135 256.32 
L 143.679135 123.264 
L 126.258682 123.264 
z
" clip-path="url(#p2b4dfda2a0)" style="fill: #2ca02c; opacity: 0.5"/>
   </g>
   <g id="matplotlib.axis_1">
    <g id="xtick_1">
     <g id="line2d_1">
      <defs>
       <path id="m7dbda565b7" d="M 0 0 
L 0 3.5 
" style="stroke: #000000; stroke-width: 0.8"/>
      </defs>
      <g>
       <use xlink:href="#m7dbda565b7" x="42.627332" y="256.32" style="stroke: #000000; stroke-width: 0.8"/>
      </g>
     </g>
     <g id="text_1">
      <!-- 0.40 -->
      <g transform="translate(31.494519 270.918437)scale(0.1 -0.1)">
       <defs>
        <path id="DejaVuSans-30" d="M 2034 4250 
Q 1547 4250 1301 3770 
Q 1056 3291 1056 2328 
Q 1056 1369 1301 889 
Q 1547 409 2034 409 
Q 2525 409 2770 889 
Q 3016 1369 3016 2328 
Q 3016 3291 2770 3770 
Q 2525 4250 2034 4250 
z
M 2034 4750 
Q 2819 4750 3233 4129 
Q 3647 3509 3647 2328 
Q 3647 1150 3233 529 
Q 2819 -91 2034 -91 
Q 1250 -91 836 529 
Q 422 1150 422 2328 
Q 422 3509 836 4129 
Q 1250 4750 2034 4750 
z
" transform="scale(0.015625)"/>
        <path id="DejaVuSans-2e" d="M 684 794 
L 1344 794 
L 1344 0 
L 684 0 
L 684 794 
z
" transform="scale(0.015625)"/>
        <path id="DejaVuSans-34" d="M 2419 4116 
L 825 1625 
L 2419 1625 
L 2419 4116 
z
M 2253 4666 
L 3047 4666 
L 3047 1625 
L 3713 1625 
L 3713 1100 
L 3047 1100 
L 3047 0 
L 2419 0 
L 2419 1100 
L 313 1100 
L 313 1709 
L 2253 4666 
z
" transform="scale(0.015625)"/>
       </defs>
       <use xlink:href="#DejaVuSans-30"/>
       <use xlink:href="#DejaVuSans-2e" x="63.623047"/>
       <use xlink:href="#DejaVuSans-34" x="95.410156"/>
       <use xlink:href="#DejaVuSans-30" x="159.033203"/>
      </g>
     </g>
    </g>
    <g id="xtick_2">
     <g id="line2d_2">
      <g>
       <use xlink:href="#m7dbda565b7" x="97.54679" y="256.32" style="stroke: #000000; stroke-width: 0.8"/>
      </g>
     </g>
     <g id="text_2">
      <!-- 0.45 -->
      <g transform="translate(86.413977 270.918437)scale(0.1 -0.1)">
       <defs>
        <path id="DejaVuSans-35" d="M 691 4666 
L 3169 4666 
L 3169 4134 
L 1269 4134 
L 1269 2991 
Q 1406 3038 1543 3061 
Q 1681 3084 1819 3084 
Q 2600 3084 3056 2656 
Q 3513 2228 3513 1497 
Q 3513 744 3044 326 
Q 2575 -91 1722 -91 
Q 1428 -91 1123 -41 
Q 819 9 494 109 
L 494 744 
Q 775 591 1075 516 
Q 1375 441 1709 441 
Q 2250 441 2565 725 
Q 2881 1009 2881 1497 
Q 2881 1984 2565 2268 
Q 2250 2553 1709 2553 
Q 1456 2553 1204 2497 
Q 953 2441 691 2322 
L 691 4666 
z
" transform="scale(0.015625)"/>
       </defs>
       <use xlink:href="#DejaVuSans-30"/>
       <use xlink:href="#DejaVuSans-2e" x="63.623047"/>
       <use xlink:href="#DejaVuSans-34" x="95.410156"/>
       <use xlink:href="#DejaVuSans-35" x="159.033203"/>
      </g>
     </g>
    </g>
    <g id="xtick_3">
     <g id="line2d_3">
      <g>
       <use xlink:href="#m7dbda565b7" x="152.466248" y="256.32" style="stroke: #000000; stroke-width: 0.8"/>
      </g>
     </g>
     <g id="text_3">
      <!-- 0.50 -->
      <g transform="translate(141.333435 270.918437)scale(0.1 -0.1)">
       <use xlink:href="#DejaVuSans-30"/>
       <use xlink:href="#DejaVuSans-2e" x="63.623047"/>
       <use xlink:href="#DejaVuSans-35" x="95.410156"/>
       <use xlink:href="#DejaVuSans-30" x="159.033203"/>
      </g>
     </g>
    </g>
   </g>
   <g id="matplotlib.axis_2">
    <g id="ytick_1">
     <g id="line2d_4">
      <defs>
       <path id="mb4c30eb195" d="M 0 0 
L -3.5 0 
" style="stroke: #000000; stroke-width: 0.8"/>
      </defs>
      <g>
       <use xlink:href="#mb4c30eb195" x="27" y="256.32" style="stroke: #000000; stroke-width: 0.8"/>
      </g>
     </g>
     <g id="text_4">
      <!-- 0 -->
      <g transform="translate(13.6375 260.119219)scale(0.1 -0.1)">
       <use xlink:href="#DejaVuSans-30"/>
      </g>
     </g>
    </g>
    <g id="ytick_2">
     <g id="line2d_5">
      <g>
       <use xlink:href="#mb4c30eb195" x="27" y="219.36" style="stroke: #000000; stroke-width: 0.8"/>
      </g>
     </g>
     <g id="text_5">
      <!-- 5 -->
      <g transform="translate(13.6375 223.159219)scale(0.1 -0.1)">
       <use xlink:href="#DejaVuSans-35"/>
      </g>
     </g>
    </g>
    <g id="ytick_3">
     <g id="line2d_6">
      <g>
       <use xlink:href="#mb4c30eb195" x="27" y="182.4" style="stroke: #000000; stroke-width: 0.8"/>
      </g>
     </g>
     <g id="text_6">
      <!-- 10 -->
      <g transform="translate(7.275 186.199219)scale(0.1 -0.1)">
       <defs>
        <path id="DejaVuSans-31" d="M 794 531 
L 1825 531 
L 1825 4091 
L 703 3866 
L 703 4441 
L 1819 4666 
L 2450 4666 
L 2450 531 
L 3481 531 
L 3481 0 
L 794 0 
L 794 531 
z
" transform="scale(0.015625)"/>
       </defs>
       <use xlink:href="#DejaVuSans-31"/>
       <use xlink:href="#DejaVuSans-30" x="63.623047"/>
      </g>
     </g>
    </g>
    <g id="ytick_4">
     <g id="line2d_7">
      <g>
       <use xlink:href="#mb4c30eb195" x="27" y="145.44" style="stroke: #000000; stroke-width: 0.8"/>
      </g>
     </g>
     <g id="text_7">
      <!-- 15 -->
      <g transform="translate(7.275 149.239219)scale(0.1 -0.1)">
       <use xlink:href="#DejaVuSans-31"/>
       <use xlink:href="#DejaVuSans-35" x="63.623047"/>
      </g>
     </g>
    </g>
    <g id="ytick_5">
     <g id="line2d_8">
      <g>
       <use xlink:href="#mb4c30eb195" x="27" y="108.48" style="stroke: #000000; stroke-width: 0.8"/>
      </g>
     </g>
     <g id="text_8">
      <!-- 20 -->
      <g transform="translate(7.275 112.279219)scale(0.1 -0.1)">
       <defs>
        <path id="DejaVuSans-32" d="M 1228 531 
L 3431 531 
L 3431 0 
L 469 0 
L 469 531 
Q 828 903 1448 1529 
Q 2069 2156 2228 2338 
Q 2531 2678 2651 2914 
Q 2772 3150 2772 3378 
Q 2772 3750 2511 3984 
Q 2250 4219 1831 4219 
Q 1534 4219 1204 4116 
Q 875 4013 500 3803 
L 500 4441 
Q 881 4594 1212 4672 
Q 1544 4750 1819 4750 
Q 2544 4750 2975 4387 
Q 3406 4025 3406 3419 
Q 3406 3131 3298 2873 
Q 3191 2616 2906 2266 
Q 2828 2175 2409 1742 
Q 1991 1309 1228 531 
z
" transform="scale(0.015625)"/>
       </defs>
       <use xlink:href="#DejaVuSans-32"/>
       <use xlink:href="#DejaVuSans-30" x="63.623047"/>
      </g>
     </g>
    </g>
    <g id="ytick_6">
     <g id="line2d_9">
      <g>
       <use xlink:href="#mb4c30eb195" x="27" y="71.52" style="stroke: #000000; stroke-width: 0.8"/>
      </g>
     </g>
     <g id="text_9">
      <!-- 25 -->
      <g transform="translate(7.275 75.319219)scale(0.1 -0.1)">
       <use xlink:href="#DejaVuSans-32"/>
       <use xlink:href="#DejaVuSans-35" x="63.623047"/>
      </g>
     </g>
    </g>
    <g id="ytick_7">
     <g id="line2d_10">
      <g>
       <use xlink:href="#mb4c30eb195" x="27" y="34.56" style="stroke: #000000; stroke-width: 0.8"/>
      </g>
     </g>
     <g id="text_10">
      <!-- 30 -->
      <g transform="translate(7.275 38.359219)scale(0.1 -0.1)">
       <defs>
        <path id="DejaVuSans-33" d="M 2597 2516 
Q 3050 2419 3304 2112 
Q 3559 1806 3559 1356 
Q 3559 666 3084 287 
Q 2609 -91 1734 -91 
Q 1441 -91 1130 -33 
Q 819 25 488 141 
L 488 750 
Q 750 597 1062 519 
Q 1375 441 1716 441 
Q 2309 441 2620 675 
Q 2931 909 2931 1356 
Q 2931 1769 2642 2001 
Q 2353 2234 1838 2234 
L 1294 2234 
L 1294 2753 
L 1863 2753 
Q 2328 2753 2575 2939 
Q 2822 3125 2822 3475 
Q 2822 3834 2567 4026 
Q 2313 4219 1838 4219 
Q 1578 4219 1281 4162 
Q 984 4106 628 3988 
L 628 4550 
Q 988 4650 1302 4700 
Q 1616 4750 1894 4750 
Q 2613 4750 3031 4423 
Q 3450 4097 3450 3541 
Q 3450 3153 3228 2886 
Q 3006 2619 2597 2516 
z
" transform="scale(0.015625)"/>
       </defs>
       <use xlink:href="#DejaVuSans-33"/>
       <use xlink:href="#DejaVuSans-30" x="63.623047"/>
      </g>
     </g>
    </g>
   </g>
   <g id="line2d_11">
    <path d="M 34.609091 256.02048 
L 35.710809 255.914354 
L 36.812526 255.77469 
L 37.914244 255.592362 
L 39.015961 255.356254 
L 40.117679 255.052974 
L 41.219397 254.666578 
L 42.321114 254.178308 
L 43.422832 253.566368 
L 44.524549 252.80577 
L 45.626267 251.86826 
L 46.727985 250.722361 
L 47.829702 249.33357 
L 48.93142 247.664721 
L 50.033137 245.676553 
L 51.134855 243.328512 
L 52.236573 240.579777 
L 53.33829 237.390539 
L 54.440008 233.723509 
L 55.541726 229.545636 
L 56.643443 224.829997 
L 57.745161 219.557788 
L 58.846878 213.720357 
L 59.948596 207.321175 
L 61.050314 200.377642 
L 62.152031 192.922627 
L 63.253749 185.005615 
L 64.355466 176.693355 
L 65.457184 168.069926 
L 66.558902 159.236119 
L 67.660619 150.308112 
L 68.762337 141.415404 
L 69.864055 132.698041 
L 70.965772 124.303191 
L 72.06749 116.381173 
L 73.169207 109.081081 
L 74.270925 102.546181 
L 75.372643 96.909262 
L 76.47436 92.28817 
L 77.576078 88.781709 
L 78.677795 86.46614 
L 79.779513 85.392418 
L 80.881231 85.584327 
L 81.982948 87.037611 
L 83.084666 89.720122 
L 84.186383 93.573009 
L 85.288101 98.512861 
L 86.389819 104.43471 
L 87.491536 111.215736 
L 88.593254 118.719497 
L 89.694972 126.80047 
L 90.796689 135.308711 
L 91.898407 144.094408 
L 93.000124 153.012152 
L 94.101842 161.924756 
L 95.20356 170.70649 
L 96.305277 179.245649 
L 97.406995 187.44639 
L 98.508712 195.229848 
L 99.61043 202.534532 
L 100.712148 209.316079 
L 101.813865 215.546442 
L 102.915583 221.212611 
L 104.0173 226.314986 
L 105.119018 230.865502 
L 106.220736 234.885635 
L 107.322453 238.404369 
L 108.424171 241.45623 
L 109.525889 244.079442 
L 110.627606 246.314268 
L 111.729324 248.201573 
L 112.831041 249.781617 
L 113.932759 251.093101 
L 115.034477 252.172434 
L 116.136194 253.053235 
L 117.237912 253.766017 
L 118.339629 254.338047 
L 119.441347 254.793334 
L 120.543065 255.152733 
L 121.644782 255.434126 
L 122.7465 255.652658 
L 123.848218 255.820999 
L 124.949935 255.949636 
L 126.051653 256.047145 
L 127.15337 256.120469 
L 128.255088 256.175168 
L 129.356806 256.21565 
L 130.458523 256.245373 
L 131.560241 256.267024 
L 132.661958 256.282672 
L 133.763676 256.293893 
L 134.865394 256.301875 
L 135.967111 256.30751 
L 137.068829 256.311457 
L 138.170546 256.3142 
L 139.272264 256.316091 
L 140.373982 256.317385 
L 141.475699 256.318264 
L 142.577417 256.318856 
L 143.679135 256.319251 
" clip-path="url(#p2b4dfda2a0)" style="fill: none; stroke: #ff7f0e; stroke-width: 1.5; stroke-linecap: square"/>
   </g>
   <g id="line2d_12">
    <path d="M 34.609091 256.185615 
L 36.146281 256.144998 
L 37.683471 256.093294 
L 39.220661 256.027845 
L 40.757851 255.945465 
L 42.295041 255.84236 
L 43.832231 255.714049 
L 45.369421 255.555278 
L 46.906612 255.359938 
L 48.443802 255.120988 
L 49.980992 254.830376 
L 51.518182 254.478978 
L 53.055372 254.056552 
L 54.592562 253.551713 
L 56.129752 252.951934 
L 57.666942 252.243577 
L 59.204132 251.411973 
L 60.741322 250.441538 
L 62.278512 249.315945 
L 63.815702 248.01835 
L 65.352893 246.531675 
L 66.890083 244.838956 
L 68.427273 242.923744 
L 69.964463 240.770567 
L 71.501653 238.365441 
L 73.038843 235.696423 
L 74.576033 232.754194 
L 76.113223 229.532656 
L 77.650413 226.029525 
L 79.187603 222.246906 
L 80.724793 218.191817 
L 82.261983 213.876644 
L 83.799174 209.31951 
L 85.336364 204.544523 
L 86.873554 199.581886 
L 88.410744 194.467859 
L 89.947934 189.244542 
L 91.485124 183.959491 
L 93.022314 178.66514 
L 94.559504 173.418053 
L 96.096694 168.278005 
L 97.633884 163.306907 
L 99.171074 158.567617 
L 100.708264 154.122638 
L 102.245455 150.032774 
L 103.782645 146.355748 
L 105.319835 143.144861 
L 106.857025 140.447706 
L 108.394215 138.304993 
L 109.931405 136.749532 
L 111.468595 135.805395 
L 113.005785 135.487296 
L 114.542975 135.80021 
L 116.080165 136.739242 
L 117.617355 138.289759 
L 119.154545 140.427762 
L 120.691736 143.120512 
L 122.228926 146.327357 
L 123.766116 150.000758 
L 125.303306 154.087456 
L 126.840496 158.529757 
L 128.377686 163.26688 
L 129.914876 168.236327 
L 131.452066 173.37524 
L 132.989256 178.621694 
L 134.526446 183.915892 
L 136.063636 189.201239 
L 137.600826 194.425265 
L 139.138017 199.540372 
L 140.675207 204.50441 
L 142.212397 209.281073 
L 143.749587 213.840106 
L 145.286777 218.157352 
L 146.823967 222.214639 
L 148.361157 225.999536 
L 149.898347 229.504981 
L 151.435537 232.728833 
L 152.972727 235.67334 
L 154.509917 238.344571 
L 156.047107 240.751823 
L 157.584298 242.907018 
L 159.121488 244.824127 
L 160.658678 246.518611 
L 162.195868 248.006912 
L 163.733058 249.305993 
L 165.270248 250.432932 
L 166.807438 251.404576 
L 168.344628 252.237258 
L 169.881818 252.946568 
L 171.419008 253.547184 
L 172.956198 254.052751 
L 174.493388 254.475806 
L 176.030579 254.827746 
L 177.567769 255.11882 
L 179.104959 255.358161 
L 180.642149 255.553828 
L 182.179339 255.712874 
L 183.716529 255.841414 
L 185.253719 255.944707 
L 186.790909 256.027241 
" clip-path="url(#p2b4dfda2a0)" style="fill: none; stroke: #2ca02c; stroke-width: 1.5; stroke-linecap: square"/>
   </g>
   <g id="line2d_13">
    <path d="M 83.816925 256.32 
L 83.816925 34.56 
" clip-path="url(#p2b4dfda2a0)" style="fill: none; stroke-dasharray: 5.55,2.4; stroke-dashoffset: 0; stroke: #000000; stroke-width: 1.5"/>
   </g>
   <g id="line2d_14">
    <path d="M 186.790909 256.32 
L 186.790909 34.56 
" clip-path="url(#p2b4dfda2a0)" style="fill: none; stroke-dasharray: 5.55,2.4; stroke-dashoffset: 0; stroke: #000000; stroke-width: 1.5"/>
   </g>
   <g id="patch_13">
    <path d="M 27 256.32 
L 27 34.56 
" style="fill: none; stroke: #000000; stroke-width: 0.8; stroke-linejoin: miter; stroke-linecap: square"/>
   </g>
   <g id="patch_14">
    <path d="M 194.4 256.32 
L 194.4 34.56 
" style="fill: none; stroke: #000000; stroke-width: 0.8; stroke-linejoin: miter; stroke-linecap: square"/>
   </g>
   <g id="patch_15">
    <path d="M 27 256.32 
L 194.4 256.32 
" style="fill: none; stroke: #000000; stroke-width: 0.8; stroke-linejoin: miter; stroke-linecap: square"/>
   </g>
   <g id="patch_16">
    <path d="M 27 34.56 
L 194.4 34.56 
" style="fill: none; stroke: #000000; stroke-width: 0.8; stroke-linejoin: miter; stroke-linecap: square"/>
   </g>
  </g>
 </g>
 <defs>
  <clipPath id="p2b4dfda2a0">
   <rect x="27" y="34.56" width="167.4" height="221.76"/>
  </clipPath>
 </defs>
</svg>
