<?xml version="1.0" encoding="utf-8" standalone="no"?>
<!DOCTYPE svg PUBLIC "-//W3C//DTD SVG 1.1//EN"
  "http://www.w3.org/Graphics/SVG/1.1/DTD/svg11.dtd">
<svg xmlns:xlink="http://www.w3.org/1999/xlink" width="216pt" height="288pt" viewBox="0 0 216 288" xmlns="http://www.w3.org/2000/svg" version="1.1">
 <metadata>
  <rdf:RDF xmlns:dc="http://purl.org/dc/elements/1.1/" xmlns:cc="http://creativecommons.org/ns#" xmlns:rdf="http://www.w3.org/1999/02/22-rdf-syntax-ns#">
   <cc:Work>
    <dc:type rdf:resource="http://purl.org/dc/dcmitype/StillImage"/>
    <dc:date>2023-02-22T08:27:12.976534</dc:date>
    <dc:format>image/svg+xml</dc:format>
    <dc:creator>
     <cc:Agent>
      <dc:title>Matplotlib v3.5.3, https://matplotlib.org/</dc:title>
     </cc:Agent>
    </dc:creator>
   </cc:Work>
  </rdf:RDF>
 </metadata>
 <defs>
  <style type="text/css">*{stroke-linejoin: round; stroke-linecap: butt}</style>
 </defs>
 <g id="figure_1">
  <g id="patch_1">
   <path d="M 0 288 
L 216 288 
L 216 0 
L 0 0 
L 0 288 
z
" style="fill: none"/>
  </g>
  <g id="axes_1">
   <g id="patch_2">
    <path d="M 27 256.32 
L 194.4 256.32 
L 194.4 34.56 
L 27 34.56 
L 27 256.32 
z
" style="fill: none"/>
   </g>
   <g id="patch_3">
    <path d="M 34.609091 256.32 
L 48.03072 256.32 
L 48.03072 248.928 
L 34.609091 248.928 
z
" clip-path="url(#pa5ca98f680)" style="fill: #ff7f0e; opacity: 0.5"/>
   </g>
   <g id="patch_4">
    <path d="M 48.03072 256.32 
L 61.45235 256.32 
L 61.45235 234.144 
L 48.03072 234.144 
z
" clip-path="url(#pa5ca98f680)" style="fill: #ff7f0e; opacity: 0.5"/>
   </g>
   <g id="patch_5">
    <path d="M 61.45235 256.32 
L 74.873979 256.32 
L 74.873979 189.792 
L 61.45235 189.792 
z
" clip-path="url(#pa5ca98f680)" style="fill: #ff7f0e; opacity: 0.5"/>
   </g>
   <g id="patch_6">
    <path d="M 74.873979 256.32 
L 88.295608 256.32 
L 88.295608 49.344 
L 74.873979 49.344 
z
" clip-path="url(#pa5ca98f680)" style="fill: #ff7f0e; opacity: 0.5"/>
   </g>
   <g id="patch_7">
    <path d="M 88.295608 256.32 
L 101.717237 256.32 
L 101.717237 189.792 
L 88.295608 189.792 
z
" clip-path="url(#pa5ca98f680)" style="fill: #ff7f0e; opacity: 0.5"/>
   </g>
   <g id="patch_8">
    <path d="M 45.333127 256.32 
L 67.40032 256.32 
L 67.40032 241.536 
L 45.333127 241.536 
z
" clip-path="url(#pa5ca98f680)" style="fill: #2ca02c; opacity: 0.5"/>
   </g>
   <g id="patch_9">
    <path d="M 67.40032 256.32 
L 89.467513 256.32 
L 89.467513 226.752 
L 67.40032 226.752 
z
" clip-path="url(#pa5ca98f680)" style="fill: #2ca02c; opacity: 0.5"/>
   </g>
   <g id="patch_10">
    <path d="M 89.467513 256.32 
L 111.534706 256.32 
L 111.534706 167.616 
L 89.467513 167.616 
z
" clip-path="url(#pa5ca98f680)" style="fill: #2ca02c; opacity: 0.5"/>
   </g>
   <g id="patch_11">
    <path d="M 111.534706 256.32 
L 133.601899 256.32 
L 133.601899 93.696 
L 111.534706 93.696 
z
" clip-path="url(#pa5ca98f680)" style="fill: #2ca02c; opacity: 0.5"/>
   </g>
   <g id="patch_12">
    <path d="M 133.601899 256.32 
L 155.669092 256.32 
L 155.669092 182.4 
L 133.601899 182.4 
z
" clip-path="url(#pa5ca98f680)" style="fill: #2ca02c; opacity: 0.5"/>
   </g>
   <g id="matplotlib.axis_1">
    <g id="xtick_1">
     <g id="line2d_1">
      <defs>
       <path id="m57bea6cebf" d="M 0 0 
L 0 3.5 
" style="stroke: #000000; stroke-width: 0.8"/>
      </defs>
      <g>
       <use xlink:href="#m57bea6cebf" x="41.684744" y="256.32" style="stroke: #000000; stroke-width: 0.8"/>
      </g>
     </g>
     <g id="text_1">
      <!-- 0.40 -->
      <g transform="translate(30.551931 270.918437)scale(0.1 -0.1)">
       <defs>
        <path id="DejaVuSans-30" d="M 2034 4250 
Q 1547 4250 1301 3770 
Q 1056 3291 1056 2328 
Q 1056 1369 1301 889 
Q 1547 409 2034 409 
Q 2525 409 2770 889 
Q 3016 1369 3016 2328 
Q 3016 3291 2770 3770 
Q 2525 4250 2034 4250 
z
M 2034 4750 
Q 2819 4750 3233 4129 
Q 3647 3509 3647 2328 
Q 3647 1150 3233 529 
Q 2819 -91 2034 -91 
Q 1250 -91 836 529 
Q 422 1150 422 2328 
Q 422 3509 836 4129 
Q 1250 4750 2034 4750 
z
" transform="scale(0.015625)"/>
        <path id="DejaVuSans-2e" d="M 684 794 
L 1344 794 
L 1344 0 
L 684 0 
L 684 794 
z
" transform="scale(0.015625)"/>
        <path id="DejaVuSans-34" d="M 2419 4116 
L 825 1625 
L 2419 1625 
L 2419 4116 
z
M 2253 4666 
L 3047 4666 
L 3047 1625 
L 3713 1625 
L 3713 1100 
L 3047 1100 
L 3047 0 
L 2419 0 
L 2419 1100 
L 313 1100 
L 313 1709 
L 2253 4666 
z
" transform="scale(0.015625)"/>
       </defs>
       <use xlink:href="#DejaVuSans-30"/>
       <use xlink:href="#DejaVuSans-2e" x="63.623047"/>
       <use xlink:href="#DejaVuSans-34" x="95.410156"/>
       <use xlink:href="#DejaVuSans-30" x="159.033203"/>
      </g>
     </g>
    </g>
    <g id="xtick_2">
     <g id="line2d_2">
      <g>
       <use xlink:href="#m57bea6cebf" x="96.963283" y="256.32" style="stroke: #000000; stroke-width: 0.8"/>
      </g>
     </g>
     <g id="text_2">
      <!-- 0.45 -->
      <g transform="translate(85.830471 270.918437)scale(0.1 -0.1)">
       <defs>
        <path id="DejaVuSans-35" d="M 691 4666 
L 3169 4666 
L 3169 4134 
L 1269 4134 
L 1269 2991 
Q 1406 3038 1543 3061 
Q 1681 3084 1819 3084 
Q 2600 3084 3056 2656 
Q 3513 2228 3513 1497 
Q 3513 744 3044 326 
Q 2575 -91 1722 -91 
Q 1428 -91 1123 -41 
Q 819 9 494 109 
L 494 744 
Q 775 591 1075 516 
Q 1375 441 1709 441 
Q 2250 441 2565 725 
Q 2881 1009 2881 1497 
Q 2881 1984 2565 2268 
Q 2250 2553 1709 2553 
Q 1456 2553 1204 2497 
Q 953 2441 691 2322 
L 691 4666 
z
" transform="scale(0.015625)"/>
       </defs>
       <use xlink:href="#DejaVuSans-30"/>
       <use xlink:href="#DejaVuSans-2e" x="63.623047"/>
       <use xlink:href="#DejaVuSans-34" x="95.410156"/>
       <use xlink:href="#DejaVuSans-35" x="159.033203"/>
      </g>
     </g>
    </g>
    <g id="xtick_3">
     <g id="line2d_3">
      <g>
       <use xlink:href="#m57bea6cebf" x="152.241822" y="256.32" style="stroke: #000000; stroke-width: 0.8"/>
      </g>
     </g>
     <g id="text_3">
      <!-- 0.50 -->
      <g transform="translate(141.10901 270.918437)scale(0.1 -0.1)">
       <use xlink:href="#DejaVuSans-30"/>
       <use xlink:href="#DejaVuSans-2e" x="63.623047"/>
       <use xlink:href="#DejaVuSans-35" x="95.410156"/>
       <use xlink:href="#DejaVuSans-30" x="159.033203"/>
      </g>
     </g>
    </g>
   </g>
   <g id="matplotlib.axis_2">
    <g id="ytick_1">
     <g id="line2d_4">
      <defs>
       <path id="m4af858cf1c" d="M 0 0 
L -3.5 0 
" style="stroke: #000000; stroke-width: 0.8"/>
      </defs>
      <g>
       <use xlink:href="#m4af858cf1c" x="27" y="256.32" style="stroke: #000000; stroke-width: 0.8"/>
      </g>
     </g>
     <g id="text_4">
      <!-- 0 -->
      <g transform="translate(13.6375 260.119219)scale(0.1 -0.1)">
       <use xlink:href="#DejaVuSans-30"/>
      </g>
     </g>
    </g>
    <g id="ytick_2">
     <g id="line2d_5">
      <g>
       <use xlink:href="#m4af858cf1c" x="27" y="219.36" style="stroke: #000000; stroke-width: 0.8"/>
      </g>
     </g>
     <g id="text_5">
      <!-- 5 -->
      <g transform="translate(13.6375 223.159219)scale(0.1 -0.1)">
       <use xlink:href="#DejaVuSans-35"/>
      </g>
     </g>
    </g>
    <g id="ytick_3">
     <g id="line2d_6">
      <g>
       <use xlink:href="#m4af858cf1c" x="27" y="182.4" style="stroke: #000000; stroke-width: 0.8"/>
      </g>
     </g>
     <g id="text_6">
      <!-- 10 -->
      <g transform="translate(7.275 186.199219)scale(0.1 -0.1)">
       <defs>
        <path id="DejaVuSans-31" d="M 794 531 
L 1825 531 
L 1825 4091 
L 703 3866 
L 703 4441 
L 1819 4666 
L 2450 4666 
L 2450 531 
L 3481 531 
L 3481 0 
L 794 0 
L 794 531 
z
" transform="scale(0.015625)"/>
       </defs>
       <use xlink:href="#DejaVuSans-31"/>
       <use xlink:href="#DejaVuSans-30" x="63.623047"/>
      </g>
     </g>
    </g>
    <g id="ytick_4">
     <g id="line2d_7">
      <g>
       <use xlink:href="#m4af858cf1c" x="27" y="145.44" style="stroke: #000000; stroke-width: 0.8"/>
      </g>
     </g>
     <g id="text_7">
      <!-- 15 -->
      <g transform="translate(7.275 149.239219)scale(0.1 -0.1)">
       <use xlink:href="#DejaVuSans-31"/>
       <use xlink:href="#DejaVuSans-35" x="63.623047"/>
      </g>
     </g>
    </g>
    <g id="ytick_5">
     <g id="line2d_8">
      <g>
       <use xlink:href="#m4af858cf1c" x="27" y="108.48" style="stroke: #000000; stroke-width: 0.8"/>
      </g>
     </g>
     <g id="text_8">
      <!-- 20 -->
      <g transform="translate(7.275 112.279219)scale(0.1 -0.1)">
       <defs>
        <path id="DejaVuSans-32" d="M 1228 531 
L 3431 531 
L 3431 0 
L 469 0 
L 469 531 
Q 828 903 1448 1529 
Q 2069 2156 2228 2338 
Q 2531 2678 2651 2914 
Q 2772 3150 2772 3378 
Q 2772 3750 2511 3984 
Q 2250 4219 1831 4219 
Q 1534 4219 1204 4116 
Q 875 4013 500 3803 
L 500 4441 
Q 881 4594 1212 4672 
Q 1544 4750 1819 4750 
Q 2544 4750 2975 4387 
Q 3406 4025 3406 3419 
Q 3406 3131 3298 2873 
Q 3191 2616 2906 2266 
Q 2828 2175 2409 1742 
Q 1991 1309 1228 531 
z
" transform="scale(0.015625)"/>
       </defs>
       <use xlink:href="#DejaVuSans-32"/>
       <use xlink:href="#DejaVuSans-30" x="63.623047"/>
      </g>
     </g>
    </g>
    <g id="ytick_6">
     <g id="line2d_9">
      <g>
       <use xlink:href="#m4af858cf1c" x="27" y="71.52" style="stroke: #000000; stroke-width: 0.8"/>
      </g>
     </g>
     <g id="text_9">
      <!-- 25 -->
      <g transform="translate(7.275 75.319219)scale(0.1 -0.1)">
       <use xlink:href="#DejaVuSans-32"/>
       <use xlink:href="#DejaVuSans-35" x="63.623047"/>
      </g>
     </g>
    </g>
    <g id="ytick_7">
     <g id="line2d_10">
      <g>
       <use xlink:href="#m4af858cf1c" x="27" y="34.56" style="stroke: #000000; stroke-width: 0.8"/>
      </g>
     </g>
     <g id="text_10">
      <!-- 30 -->
      <g transform="translate(7.275 38.359219)scale(0.1 -0.1)">
       <defs>
        <path id="DejaVuSans-33" d="M 2597 2516 
Q 3050 2419 3304 2112 
Q 3559 1806 3559 1356 
Q 3559 666 3084 287 
Q 2609 -91 1734 -91 
Q 1441 -91 1130 -33 
Q 819 25 488 141 
L 488 750 
Q 750 597 1062 519 
Q 1375 441 1716 441 
Q 2309 441 2620 675 
Q 2931 909 2931 1356 
Q 2931 1769 2642 2001 
Q 2353 2234 1838 2234 
L 1294 2234 
L 1294 2753 
L 1863 2753 
Q 2328 2753 2575 2939 
Q 2822 3125 2822 3475 
Q 2822 3834 2567 4026 
Q 2313 4219 1838 4219 
Q 1578 4219 1281 4162 
Q 984 4106 628 3988 
L 628 4550 
Q 988 4650 1302 4700 
Q 1616 4750 1894 4750 
Q 2613 4750 3031 4423 
Q 3450 4097 3450 3541 
Q 3450 3153 3228 2886 
Q 3006 2619 2597 2516 
z
" transform="scale(0.015625)"/>
       </defs>
       <use xlink:href="#DejaVuSans-33"/>
       <use xlink:href="#DejaVuSans-30" x="63.623047"/>
      </g>
     </g>
    </g>
   </g>
   <g id="line2d_11">
    <path d="M 34.609091 256.319735 
L 35.831919 256.319467 
L 37.054747 256.318948 
L 38.277576 256.317963 
L 39.500404 256.316127 
L 40.723232 256.312771 
L 41.946061 256.306752 
L 43.168889 256.296164 
L 44.391717 256.277899 
L 45.614546 256.246996 
L 46.837374 256.195722 
L 48.060202 256.112298 
L 49.28303 255.979213 
L 50.505859 255.771067 
L 51.728687 255.451936 
L 52.951515 254.972344 
L 54.174344 254.265995 
L 55.397172 253.246598 
L 56.62 251.805263 
L 57.842828 249.809103 
L 59.065657 247.101835 
L 60.288485 243.50722 
L 61.511313 238.836132 
L 62.734142 232.897841 
L 63.95697 225.515683 
L 65.179798 216.54671 
L 66.402626 205.904195 
L 67.625455 193.581063 
L 68.848283 179.671639 
L 70.071111 164.388606 
L 71.29394 148.07195 
L 72.516768 131.18708 
L 73.739596 114.310193 
L 74.962424 98.100373 
L 76.185253 83.259627 
L 77.408081 70.483859 
L 78.630909 60.40938 
L 79.853738 53.560578 
L 81.076566 50.30475 
L 82.299394 50.819466 
L 83.522222 55.076527 
L 84.745051 62.84453 
L 85.967879 73.709695 
L 87.190707 87.112382 
L 88.413536 102.394772 
L 89.636364 118.854107 
L 90.859192 135.795491 
L 92.082021 152.578852 
L 93.304849 168.655858 
L 94.527677 183.594254 
L 95.750505 197.088921 
L 96.973334 208.960581 
L 98.196162 219.144369 
L 99.41899 227.671256 
L 100.641819 234.64555 
L 101.864647 240.221484 
L 103.087475 244.58133 
L 104.310303 247.916752 
L 105.533132 250.414309 
L 106.75596 252.245357 
L 107.978788 253.560035 
L 109.201617 254.484675 
L 110.424445 255.121833 
L 111.647273 255.552078 
L 112.870101 255.836816 
L 114.09293 256.021528 
L 115.315758 256.138996 
L 116.538586 256.212237 
L 117.761415 256.257014 
L 118.984243 256.283858 
L 120.207071 256.29964 
L 121.429899 256.30874 
L 122.652728 256.313886 
L 123.875556 256.316741 
L 125.098384 256.318295 
L 126.321213 256.319124 
L 127.544041 256.319558 
L 128.766869 256.319781 
L 129.989697 256.319894 
L 131.212526 256.319949 
L 132.435354 256.319976 
L 133.658182 256.319989 
L 134.881011 256.319995 
L 136.103839 256.319998 
L 137.326667 256.319999 
L 138.549496 256.32 
L 139.772324 256.32 
L 140.995152 256.32 
L 142.21798 256.32 
L 143.440809 256.32 
L 144.663637 256.32 
L 145.886465 256.32 
L 147.109294 256.32 
L 148.332122 256.32 
L 149.55495 256.32 
L 150.777778 256.32 
L 152.000607 256.32 
L 153.223435 256.32 
L 154.446263 256.32 
L 155.669092 256.32 
" clip-path="url(#pa5ca98f680)" style="fill: none; stroke: #ff7f0e; stroke-width: 1.5; stroke-linecap: square"/>
   </g>
   <g id="line2d_12">
    <path d="M 34.609091 256.304001 
L 36.146281 256.297831 
L 37.683471 256.289461 
L 39.220661 256.278179 
L 40.757851 256.263064 
L 42.295041 256.242941 
L 43.832231 256.216319 
L 45.369421 256.181317 
L 46.906612 256.135589 
L 48.443802 256.07622 
L 49.980992 255.99963 
L 51.518182 255.901447 
L 53.055372 255.776384 
L 54.592562 255.618095 
L 56.129752 255.419035 
L 57.666942 255.170307 
L 59.204132 254.861522 
L 60.741322 254.480662 
L 62.278512 254.013957 
L 63.815702 253.445799 
L 65.352893 252.758682 
L 66.890083 251.933194 
L 68.427273 250.948074 
L 69.964463 249.780334 
L 71.501653 248.405472 
L 73.038843 246.797774 
L 74.576033 244.93073 
L 76.113223 242.777549 
L 77.650413 240.311797 
L 79.187603 237.508135 
L 80.724793 234.343168 
L 82.261983 230.796379 
L 83.799174 226.851133 
L 85.336364 222.495722 
L 86.873554 217.724417 
L 88.410744 212.538502 
L 89.947934 206.947218 
L 91.485124 200.96861 
L 93.022314 194.630192 
L 94.559504 187.969411 
L 96.096694 181.033854 
L 97.633884 173.881169 
L 99.171074 166.578662 
L 100.708264 159.202563 
L 102.245455 151.83695 
L 103.782645 144.572343 
L 105.319835 137.503988 
L 106.857025 130.729882 
L 108.394215 124.348569 
L 109.931405 118.456805 
L 111.468595 113.147138 
L 113.005785 108.505502 
L 114.542975 104.608915 
L 116.080165 101.523351 
L 117.617355 99.301888 
L 119.154545 97.983186 
L 120.691736 97.590367 
L 122.228926 98.130345 
L 123.766116 99.593621 
L 125.303306 101.954558 
L 126.840496 105.172136 
L 128.377686 109.191127 
L 129.914876 113.943682 
L 131.452066 119.351228 
L 132.989256 125.326627 
L 134.526446 131.776506 
L 136.063636 138.603668 
L 137.600826 145.7095 
L 139.138017 152.996301 
L 140.675207 160.369445 
L 142.212397 167.739324 
L 143.749587 175.023013 
L 145.286777 182.14563 
L 146.823967 189.041354 
L 148.361157 195.65411 
L 149.898347 201.937915 
L 151.435537 207.85691 
L 152.972727 213.385116 
L 154.509917 218.505927 
L 156.047107 223.211419 
L 157.584298 227.501482 
L 159.121488 231.382859 
L 160.658678 234.868106 
L 162.195868 237.974541 
L 163.733058 240.723201 
L 165.270248 243.137847 
L 166.807438 245.244046 
L 168.344628 247.068335 
L 169.881818 248.637499 
L 171.419008 249.977955 
L 172.956198 251.115249 
L 174.493388 252.073662 
L 176.030579 252.875921 
L 177.567769 253.543002 
L 179.104959 254.094016 
L 180.642149 254.546168 
L 182.179339 254.914772 
L 183.716529 255.213312 
L 185.253719 255.453542 
L 186.790909 255.645606 
" clip-path="url(#pa5ca98f680)" style="fill: none; stroke: #2ca02c; stroke-width: 1.5; stroke-linecap: square"/>
   </g>
   <g id="line2d_13">
    <path d="M 83.143648 256.32 
L 83.143648 34.56 
" clip-path="url(#pa5ca98f680)" style="fill: none; stroke-dasharray: 5.55,2.4; stroke-dashoffset: 0; stroke: #000000; stroke-width: 1.5"/>
   </g>
   <g id="line2d_14">
    <path d="M 186.790909 256.32 
L 186.790909 34.56 
" clip-path="url(#pa5ca98f680)" style="fill: none; stroke-dasharray: 5.55,2.4; stroke-dashoffset: 0; stroke: #000000; stroke-width: 1.5"/>
   </g>
   <g id="patch_13">
    <path d="M 27 256.32 
L 27 34.56 
" style="fill: none; stroke: #000000; stroke-width: 0.8; stroke-linejoin: miter; stroke-linecap: square"/>
   </g>
   <g id="patch_14">
    <path d="M 194.4 256.32 
L 194.4 34.56 
" style="fill: none; stroke: #000000; stroke-width: 0.8; stroke-linejoin: miter; stroke-linecap: square"/>
   </g>
   <g id="patch_15">
    <path d="M 27 256.32 
L 194.4 256.32 
" style="fill: none; stroke: #000000; stroke-width: 0.8; stroke-linejoin: miter; stroke-linecap: square"/>
   </g>
   <g id="patch_16">
    <path d="M 27 34.56 
L 194.4 34.56 
" style="fill: none; stroke: #000000; stroke-width: 0.8; stroke-linejoin: miter; stroke-linecap: square"/>
   </g>
  </g>
 </g>
 <defs>
  <clipPath id="pa5ca98f680">
   <rect x="27" y="34.56" width="167.4" height="221.76"/>
  </clipPath>
 </defs>
</svg>
