<?xml version="1.0" encoding="utf-8" standalone="no"?>
<!DOCTYPE svg PUBLIC "-//W3C//DTD SVG 1.1//EN"
  "http://www.w3.org/Graphics/SVG/1.1/DTD/svg11.dtd">
<svg xmlns:xlink="http://www.w3.org/1999/xlink" width="216pt" height="288pt" viewBox="0 0 216 288" xmlns="http://www.w3.org/2000/svg" version="1.1">
 <metadata>
  <rdf:RDF xmlns:dc="http://purl.org/dc/elements/1.1/" xmlns:cc="http://creativecommons.org/ns#" xmlns:rdf="http://www.w3.org/1999/02/22-rdf-syntax-ns#">
   <cc:Work>
    <dc:type rdf:resource="http://purl.org/dc/dcmitype/StillImage"/>
    <dc:date>2023-02-24T14:16:07.670895</dc:date>
    <dc:format>image/svg+xml</dc:format>
    <dc:creator>
     <cc:Agent>
      <dc:title>Matplotlib v3.5.3, https://matplotlib.org/</dc:title>
     </cc:Agent>
    </dc:creator>
   </cc:Work>
  </rdf:RDF>
 </metadata>
 <defs>
  <style type="text/css">*{stroke-linejoin: round; stroke-linecap: butt}</style>
 </defs>
 <g id="figure_1">
  <g id="patch_1">
   <path d="M 0 288 
L 216 288 
L 216 0 
L 0 0 
L 0 288 
z
" style="fill: none"/>
  </g>
  <g id="axes_1">
   <g id="patch_2">
    <path d="M 27 256.32 
L 194.4 256.32 
L 194.4 34.56 
L 27 34.56 
L 27 256.32 
z
" style="fill: none"/>
   </g>
   <g id="patch_3">
    <path d="M 34.609091 256.32 
L 48.561521 256.32 
L 48.561521 226.752 
L 34.609091 226.752 
z
" clip-path="url(#pa3f939821c)" style="fill: #ff7f0e; opacity: 0.5"/>
   </g>
   <g id="patch_4">
    <path d="M 48.561521 256.32 
L 62.513952 256.32 
L 62.513952 160.224 
L 48.561521 160.224 
z
" clip-path="url(#pa3f939821c)" style="fill: #ff7f0e; opacity: 0.5"/>
   </g>
   <g id="patch_5">
    <path d="M 62.513952 256.32 
L 76.466382 256.32 
L 76.466382 138.048 
L 62.513952 138.048 
z
" clip-path="url(#pa3f939821c)" style="fill: #ff7f0e; opacity: 0.5"/>
   </g>
   <g id="patch_6">
    <path d="M 76.466382 256.32 
L 90.418813 256.32 
L 90.418813 160.224 
L 76.466382 160.224 
z
" clip-path="url(#pa3f939821c)" style="fill: #ff7f0e; opacity: 0.5"/>
   </g>
   <g id="patch_7">
    <path d="M 90.418813 256.32 
L 104.371243 256.32 
L 104.371243 226.752 
L 90.418813 226.752 
z
" clip-path="url(#pa3f939821c)" style="fill: #ff7f0e; opacity: 0.5"/>
   </g>
   <g id="patch_8">
    <path d="M 55.957709 256.32 
L 71.940008 256.32 
L 71.940008 248.928 
L 55.957709 248.928 
z
" clip-path="url(#pa3f939821c)" style="fill: #2ca02c; opacity: 0.5"/>
   </g>
   <g id="patch_9">
    <path d="M 71.940008 256.32 
L 87.922307 256.32 
L 87.922307 211.968 
L 71.940008 211.968 
z
" clip-path="url(#pa3f939821c)" style="fill: #2ca02c; opacity: 0.5"/>
   </g>
   <g id="patch_10">
    <path d="M 87.922307 256.32 
L 103.904606 256.32 
L 103.904606 189.792 
L 87.922307 189.792 
z
" clip-path="url(#pa3f939821c)" style="fill: #2ca02c; opacity: 0.5"/>
   </g>
   <g id="patch_11">
    <path d="M 103.904606 256.32 
L 119.886905 256.32 
L 119.886905 93.696 
L 103.904606 93.696 
z
" clip-path="url(#pa3f939821c)" style="fill: #2ca02c; opacity: 0.5"/>
   </g>
   <g id="patch_12">
    <path d="M 119.886905 256.32 
L 135.869205 256.32 
L 135.869205 167.616 
L 119.886905 167.616 
z
" clip-path="url(#pa3f939821c)" style="fill: #2ca02c; opacity: 0.5"/>
   </g>
   <g id="matplotlib.axis_1">
    <g id="xtick_1">
     <g id="line2d_1">
      <defs>
       <path id="madcaaf2132" d="M 0 0 
L 0 3.5 
" style="stroke: #000000; stroke-width: 0.8"/>
      </defs>
      <g>
       <use xlink:href="#madcaaf2132" x="33.675818" y="256.32" style="stroke: #000000; stroke-width: 0.8"/>
      </g>
     </g>
     <g id="text_1">
      <!-- 0.40 -->
      <g transform="translate(22.543005 270.918437)scale(0.1 -0.1)">
       <defs>
        <path id="DejaVuSans-30" d="M 2034 4250 
Q 1547 4250 1301 3770 
Q 1056 3291 1056 2328 
Q 1056 1369 1301 889 
Q 1547 409 2034 409 
Q 2525 409 2770 889 
Q 3016 1369 3016 2328 
Q 3016 3291 2770 3770 
Q 2525 4250 2034 4250 
z
M 2034 4750 
Q 2819 4750 3233 4129 
Q 3647 3509 3647 2328 
Q 3647 1150 3233 529 
Q 2819 -91 2034 -91 
Q 1250 -91 836 529 
Q 422 1150 422 2328 
Q 422 3509 836 4129 
Q 1250 4750 2034 4750 
z
" transform="scale(0.015625)"/>
        <path id="DejaVuSans-2e" d="M 684 794 
L 1344 794 
L 1344 0 
L 684 0 
L 684 794 
z
" transform="scale(0.015625)"/>
        <path id="DejaVuSans-34" d="M 2419 4116 
L 825 1625 
L 2419 1625 
L 2419 4116 
z
M 2253 4666 
L 3047 4666 
L 3047 1625 
L 3713 1625 
L 3713 1100 
L 3047 1100 
L 3047 0 
L 2419 0 
L 2419 1100 
L 313 1100 
L 313 1709 
L 2253 4666 
z
" transform="scale(0.015625)"/>
       </defs>
       <use xlink:href="#DejaVuSans-30"/>
       <use xlink:href="#DejaVuSans-2e" x="63.623047"/>
       <use xlink:href="#DejaVuSans-34" x="95.410156"/>
       <use xlink:href="#DejaVuSans-30" x="159.033203"/>
      </g>
     </g>
    </g>
    <g id="xtick_2">
     <g id="line2d_2">
      <g>
       <use xlink:href="#madcaaf2132" x="92.005376" y="256.32" style="stroke: #000000; stroke-width: 0.8"/>
      </g>
     </g>
     <g id="text_2">
      <!-- 0.45 -->
      <g transform="translate(80.872564 270.918437)scale(0.1 -0.1)">
       <defs>
        <path id="DejaVuSans-35" d="M 691 4666 
L 3169 4666 
L 3169 4134 
L 1269 4134 
L 1269 2991 
Q 1406 3038 1543 3061 
Q 1681 3084 1819 3084 
Q 2600 3084 3056 2656 
Q 3513 2228 3513 1497 
Q 3513 744 3044 326 
Q 2575 -91 1722 -91 
Q 1428 -91 1123 -41 
Q 819 9 494 109 
L 494 744 
Q 775 591 1075 516 
Q 1375 441 1709 441 
Q 2250 441 2565 725 
Q 2881 1009 2881 1497 
Q 2881 1984 2565 2268 
Q 2250 2553 1709 2553 
Q 1456 2553 1204 2497 
Q 953 2441 691 2322 
L 691 4666 
z
" transform="scale(0.015625)"/>
       </defs>
       <use xlink:href="#DejaVuSans-30"/>
       <use xlink:href="#DejaVuSans-2e" x="63.623047"/>
       <use xlink:href="#DejaVuSans-34" x="95.410156"/>
       <use xlink:href="#DejaVuSans-35" x="159.033203"/>
      </g>
     </g>
    </g>
    <g id="xtick_3">
     <g id="line2d_3">
      <g>
       <use xlink:href="#madcaaf2132" x="150.334935" y="256.32" style="stroke: #000000; stroke-width: 0.8"/>
      </g>
     </g>
     <g id="text_3">
      <!-- 0.50 -->
      <g transform="translate(139.202123 270.918437)scale(0.1 -0.1)">
       <use xlink:href="#DejaVuSans-30"/>
       <use xlink:href="#DejaVuSans-2e" x="63.623047"/>
       <use xlink:href="#DejaVuSans-35" x="95.410156"/>
       <use xlink:href="#DejaVuSans-30" x="159.033203"/>
      </g>
     </g>
    </g>
   </g>
   <g id="matplotlib.axis_2">
    <g id="ytick_1">
     <g id="line2d_4">
      <defs>
       <path id="m2309806e3d" d="M 0 0 
L -3.5 0 
" style="stroke: #000000; stroke-width: 0.8"/>
      </defs>
      <g>
       <use xlink:href="#m2309806e3d" x="27" y="256.32" style="stroke: #000000; stroke-width: 0.8"/>
      </g>
     </g>
     <g id="text_4">
      <!-- 0 -->
      <g transform="translate(13.6375 260.119219)scale(0.1 -0.1)">
       <use xlink:href="#DejaVuSans-30"/>
      </g>
     </g>
    </g>
    <g id="ytick_2">
     <g id="line2d_5">
      <g>
       <use xlink:href="#m2309806e3d" x="27" y="219.36" style="stroke: #000000; stroke-width: 0.8"/>
      </g>
     </g>
     <g id="text_5">
      <!-- 5 -->
      <g transform="translate(13.6375 223.159219)scale(0.1 -0.1)">
       <use xlink:href="#DejaVuSans-35"/>
      </g>
     </g>
    </g>
    <g id="ytick_3">
     <g id="line2d_6">
      <g>
       <use xlink:href="#m2309806e3d" x="27" y="182.4" style="stroke: #000000; stroke-width: 0.8"/>
      </g>
     </g>
     <g id="text_6">
      <!-- 10 -->
      <g transform="translate(7.275 186.199219)scale(0.1 -0.1)">
       <defs>
        <path id="DejaVuSans-31" d="M 794 531 
L 1825 531 
L 1825 4091 
L 703 3866 
L 703 4441 
L 1819 4666 
L 2450 4666 
L 2450 531 
L 3481 531 
L 3481 0 
L 794 0 
L 794 531 
z
" transform="scale(0.015625)"/>
       </defs>
       <use xlink:href="#DejaVuSans-31"/>
       <use xlink:href="#DejaVuSans-30" x="63.623047"/>
      </g>
     </g>
    </g>
    <g id="ytick_4">
     <g id="line2d_7">
      <g>
       <use xlink:href="#m2309806e3d" x="27" y="145.44" style="stroke: #000000; stroke-width: 0.8"/>
      </g>
     </g>
     <g id="text_7">
      <!-- 15 -->
      <g transform="translate(7.275 149.239219)scale(0.1 -0.1)">
       <use xlink:href="#DejaVuSans-31"/>
       <use xlink:href="#DejaVuSans-35" x="63.623047"/>
      </g>
     </g>
    </g>
    <g id="ytick_5">
     <g id="line2d_8">
      <g>
       <use xlink:href="#m2309806e3d" x="27" y="108.48" style="stroke: #000000; stroke-width: 0.8"/>
      </g>
     </g>
     <g id="text_8">
      <!-- 20 -->
      <g transform="translate(7.275 112.279219)scale(0.1 -0.1)">
       <defs>
        <path id="DejaVuSans-32" d="M 1228 531 
L 3431 531 
L 3431 0 
L 469 0 
L 469 531 
Q 828 903 1448 1529 
Q 2069 2156 2228 2338 
Q 2531 2678 2651 2914 
Q 2772 3150 2772 3378 
Q 2772 3750 2511 3984 
Q 2250 4219 1831 4219 
Q 1534 4219 1204 4116 
Q 875 4013 500 3803 
L 500 4441 
Q 881 4594 1212 4672 
Q 1544 4750 1819 4750 
Q 2544 4750 2975 4387 
Q 3406 4025 3406 3419 
Q 3406 3131 3298 2873 
Q 3191 2616 2906 2266 
Q 2828 2175 2409 1742 
Q 1991 1309 1228 531 
z
" transform="scale(0.015625)"/>
       </defs>
       <use xlink:href="#DejaVuSans-32"/>
       <use xlink:href="#DejaVuSans-30" x="63.623047"/>
      </g>
     </g>
    </g>
    <g id="ytick_6">
     <g id="line2d_9">
      <g>
       <use xlink:href="#m2309806e3d" x="27" y="71.52" style="stroke: #000000; stroke-width: 0.8"/>
      </g>
     </g>
     <g id="text_9">
      <!-- 25 -->
      <g transform="translate(7.275 75.319219)scale(0.1 -0.1)">
       <use xlink:href="#DejaVuSans-32"/>
       <use xlink:href="#DejaVuSans-35" x="63.623047"/>
      </g>
     </g>
    </g>
    <g id="ytick_7">
     <g id="line2d_10">
      <g>
       <use xlink:href="#m2309806e3d" x="27" y="34.56" style="stroke: #000000; stroke-width: 0.8"/>
      </g>
     </g>
     <g id="text_10">
      <!-- 30 -->
      <g transform="translate(7.275 38.359219)scale(0.1 -0.1)">
       <defs>
        <path id="DejaVuSans-33" d="M 2597 2516 
Q 3050 2419 3304 2112 
Q 3559 1806 3559 1356 
Q 3559 666 3084 287 
Q 2609 -91 1734 -91 
Q 1441 -91 1130 -33 
Q 819 25 488 141 
L 488 750 
Q 750 597 1062 519 
Q 1375 441 1716 441 
Q 2309 441 2620 675 
Q 2931 909 2931 1356 
Q 2931 1769 2642 2001 
Q 2353 2234 1838 2234 
L 1294 2234 
L 1294 2753 
L 1863 2753 
Q 2328 2753 2575 2939 
Q 2822 3125 2822 3475 
Q 2822 3834 2567 4026 
Q 2313 4219 1838 4219 
Q 1578 4219 1281 4162 
Q 984 4106 628 3988 
L 628 4550 
Q 988 4650 1302 4700 
Q 1616 4750 1894 4750 
Q 2613 4750 3031 4423 
Q 3450 4097 3450 3541 
Q 3450 3153 3228 2886 
Q 3006 2619 2597 2516 
z
" transform="scale(0.015625)"/>
       </defs>
       <use xlink:href="#DejaVuSans-33"/>
       <use xlink:href="#DejaVuSans-30" x="63.623047"/>
      </g>
     </g>
    </g>
   </g>
   <g id="line2d_11">
    <path d="M 34.609091 240.22256 
L 35.63192 238.199409 
L 36.65475 235.993725 
L 37.677579 233.599749 
L 38.700409 231.013136 
L 39.723238 228.231184 
L 40.746067 225.253063 
L 41.768897 222.080034 
L 42.791726 218.715648 
L 43.814556 215.165931 
L 44.837385 211.439536 
L 45.860215 207.547862 
L 46.883044 203.50514 
L 47.905874 199.328463 
L 48.928703 195.03778 
L 49.951532 190.655822 
L 50.974362 186.20799 
L 51.997191 181.722167 
L 53.020021 177.228484 
L 54.04285 172.759028 
L 55.06568 168.347496 
L 56.088509 164.028795 
L 57.111338 159.838607 
L 58.134168 155.812907 
L 59.156997 151.987469 
L 60.179827 148.397333 
L 61.202656 145.076284 
L 62.225486 142.056324 
L 63.248315 139.367155 
L 64.271144 137.035702 
L 65.293974 135.085658 
L 66.316803 133.537087 
L 67.339633 132.406081 
L 68.362462 131.704477 
L 69.385292 131.439655 
L 70.408121 131.614409 
L 71.43095 132.226896 
L 72.45378 133.270667 
L 73.476609 134.734783 
L 74.499439 136.604007 
L 75.522268 138.859063 
L 76.545098 141.476971 
L 77.567927 144.431433 
L 78.590756 147.693278 
L 79.613586 151.230936 
L 80.636415 155.010944 
L 81.659245 158.998475 
L 82.682074 163.157866 
L 83.704904 167.453138 
L 84.727733 171.84851 
L 85.750562 176.308879 
L 86.773392 180.800268 
L 87.796221 185.290228 
L 88.819051 189.748201 
L 89.84188 194.145822 
L 90.86471 198.457165 
L 91.887539 202.658939 
L 92.910368 206.730619 
L 93.933198 210.654521 
L 94.956027 214.415831 
L 95.978857 218.002573 
L 97.001686 221.405539 
L 98.024516 224.618178 
L 99.047345 227.636443 
L 100.070174 230.458621 
L 101.093004 233.08513 
L 102.115833 235.518306 
L 103.138663 237.762177 
L 104.161492 239.822229 
L 105.184322 241.705182 
L 106.207151 243.418761 
L 107.22998 244.971477 
L 108.25281 246.372427 
L 109.275639 247.6311 
L 110.298469 248.757204 
L 111.321298 249.760513 
L 112.344128 250.650729 
L 113.366957 251.437363 
L 114.389786 252.129637 
L 115.412616 252.736407 
L 116.435445 253.266095 
L 117.458275 253.726642 
L 118.481104 254.125482 
L 119.503934 254.469514 
L 120.526763 254.765101 
L 121.549592 255.018067 
L 122.572422 255.233712 
L 123.595251 255.416827 
L 124.618081 255.571715 
L 125.64091 255.702221 
L 126.66374 255.81176 
L 127.686569 255.903347 
L 128.709398 255.979631 
L 129.732228 256.042926 
L 130.755057 256.095244 
L 131.777887 256.138324 
L 132.800716 256.173664 
L 133.823546 256.202544 
L 134.846375 256.226055 
L 135.869205 256.245125 
" clip-path="url(#pa3f939821c)" style="fill: none; stroke: #ff7f0e; stroke-width: 1.5; stroke-linecap: square"/>
   </g>
   <g id="line2d_12">
    <path d="M 34.609091 256.319767 
L 36.146281 256.319608 
L 37.683471 256.319346 
L 39.220661 256.31892 
L 40.757851 256.318235 
L 42.295041 256.317146 
L 43.832231 256.315434 
L 45.369421 256.312768 
L 46.906612 256.308665 
L 48.443802 256.302417 
L 49.980992 256.293006 
L 51.518182 256.278986 
L 53.055372 256.258326 
L 54.592562 256.228216 
L 56.129752 256.184814 
L 57.666942 256.122943 
L 59.204132 256.035717 
L 60.741322 255.91411 
L 62.278512 255.74646 
L 63.815702 255.517923 
L 65.352893 255.209888 
L 66.890083 254.799398 
L 68.427273 254.258602 
L 69.964463 253.554293 
L 71.501653 252.647615 
L 73.038843 251.49399 
L 74.576033 250.043377 
L 76.113223 248.240923 
L 77.650413 246.028106 
L 79.187603 243.344421 
L 80.724793 240.129657 
L 82.261983 236.326759 
L 83.799174 231.885231 
L 85.336364 226.764989 
L 86.873554 220.940485 
L 88.410744 214.404902 
L 89.947934 207.174136 
L 91.485124 199.29027 
L 93.022314 190.824189 
L 94.559504 181.877045 
L 96.096694 172.580273 
L 97.633884 163.093937 
L 99.171074 153.603312 
L 100.708264 144.313677 
L 102.245455 135.443484 
L 103.782645 127.21615 
L 105.319835 119.850903 
L 106.857025 113.553174 
L 108.394215 108.50512 
L 109.931405 104.856889 
L 111.468595 102.719209 
L 113.005785 102.157801 
L 114.542975 103.190028 
L 116.080165 105.783998 
L 117.617355 109.860208 
L 119.154545 115.295583 
L 120.691736 121.929652 
L 122.228926 129.572411 
L 123.766116 138.013338 
L 125.303306 147.030973 
L 126.840496 156.402449 
L 128.377686 165.912416 
L 129.914876 175.360873 
L 131.452066 184.56955 
L 132.989256 193.386584 
L 134.526446 201.689415 
L 136.063636 209.385926 
L 137.600826 216.41397 
L 139.138017 222.739538 
L 140.675207 228.353851 
L 142.212397 233.269703 
L 143.749587 237.517385 
L 145.286777 241.140487 
L 146.823967 244.191829 
L 148.361157 246.729735 
L 149.898347 248.814773 
L 151.435537 250.507073 
L 152.972727 251.86422 
L 154.509917 252.939737 
L 156.047107 253.782096 
L 157.584298 254.434191 
L 159.121488 254.933187 
L 160.658678 255.310663 
L 162.195868 255.59297 
L 163.733058 255.801718 
L 165.270248 255.954339 
L 166.807438 256.064678 
L 168.344628 256.143561 
L 169.881818 256.19933 
L 171.419008 256.238322 
L 172.956198 256.265285 
L 174.493388 256.283725 
L 176.030579 256.296199 
L 177.567769 256.304544 
L 179.104959 256.310067 
L 180.642149 256.313682 
L 182.179339 256.316023 
L 183.716529 256.317522 
L 185.253719 256.318472 
L 186.790909 256.319068 
" clip-path="url(#pa3f939821c)" style="fill: none; stroke: #2ca02c; stroke-width: 1.5; stroke-linecap: square"/>
   </g>
   <g id="line2d_13">
    <path d="M 77.422987 256.32 
L 77.422987 34.56 
" clip-path="url(#pa3f939821c)" style="fill: none; stroke-dasharray: 5.55,2.4; stroke-dashoffset: 0; stroke: #000000; stroke-width: 1.5"/>
   </g>
   <g id="line2d_14">
    <path d="M 186.790909 256.32 
L 186.790909 34.56 
" clip-path="url(#pa3f939821c)" style="fill: none; stroke-dasharray: 5.55,2.4; stroke-dashoffset: 0; stroke: #000000; stroke-width: 1.5"/>
   </g>
   <g id="patch_13">
    <path d="M 27 256.32 
L 27 34.56 
" style="fill: none; stroke: #000000; stroke-width: 0.8; stroke-linejoin: miter; stroke-linecap: square"/>
   </g>
   <g id="patch_14">
    <path d="M 194.4 256.32 
L 194.4 34.56 
" style="fill: none; stroke: #000000; stroke-width: 0.8; stroke-linejoin: miter; stroke-linecap: square"/>
   </g>
   <g id="patch_15">
    <path d="M 27 256.32 
L 194.4 256.32 
" style="fill: none; stroke: #000000; stroke-width: 0.8; stroke-linejoin: miter; stroke-linecap: square"/>
   </g>
   <g id="patch_16">
    <path d="M 27 34.56 
L 194.4 34.56 
" style="fill: none; stroke: #000000; stroke-width: 0.8; stroke-linejoin: miter; stroke-linecap: square"/>
   </g>
  </g>
 </g>
 <defs>
  <clipPath id="pa3f939821c">
   <rect x="27" y="34.56" width="167.4" height="221.76"/>
  </clipPath>
 </defs>
</svg>
