<?xml version="1.0" encoding="utf-8" standalone="no"?>
<!DOCTYPE svg PUBLIC "-//W3C//DTD SVG 1.1//EN"
  "http://www.w3.org/Graphics/SVG/1.1/DTD/svg11.dtd">
<svg xmlns:xlink="http://www.w3.org/1999/xlink" width="216pt" height="288pt" viewBox="0 0 216 288" xmlns="http://www.w3.org/2000/svg" version="1.1">
 <metadata>
  <rdf:RDF xmlns:dc="http://purl.org/dc/elements/1.1/" xmlns:cc="http://creativecommons.org/ns#" xmlns:rdf="http://www.w3.org/1999/02/22-rdf-syntax-ns#">
   <cc:Work>
    <dc:type rdf:resource="http://purl.org/dc/dcmitype/StillImage"/>
    <dc:date>2023-04-18T13:17:28.860289</dc:date>
    <dc:format>image/svg+xml</dc:format>
    <dc:creator>
     <cc:Agent>
      <dc:title>Matplotlib v3.5.3, https://matplotlib.org/</dc:title>
     </cc:Agent>
    </dc:creator>
   </cc:Work>
  </rdf:RDF>
 </metadata>
 <defs>
  <style type="text/css">*{stroke-linejoin: round; stroke-linecap: butt}</style>
 </defs>
 <g id="figure_1">
  <g id="patch_1">
   <path d="M 0 288 
L 216 288 
L 216 0 
L 0 0 
L 0 288 
z
" style="fill: none"/>
  </g>
  <g id="axes_1">
   <g id="patch_2">
    <path d="M 27 256.32 
L 194.4 256.32 
L 194.4 34.56 
L 27 34.56 
L 27 256.32 
z
" style="fill: none"/>
   </g>
   <g id="patch_3">
    <path d="M 34.609091 256.32 
L 49.437345 256.32 
L 49.437345 248.928 
L 34.609091 248.928 
z
" clip-path="url(#pc1c46f5380)" style="fill: #ff7f0e; opacity: 0.5"/>
   </g>
   <g id="patch_4">
    <path d="M 49.437345 256.32 
L 64.265598 256.32 
L 64.265598 234.144 
L 49.437345 234.144 
z
" clip-path="url(#pc1c46f5380)" style="fill: #ff7f0e; opacity: 0.5"/>
   </g>
   <g id="patch_5">
    <path d="M 64.265598 256.32 
L 79.093852 256.32 
L 79.093852 138.048 
L 64.265598 138.048 
z
" clip-path="url(#pc1c46f5380)" style="fill: #ff7f0e; opacity: 0.5"/>
   </g>
   <g id="patch_6">
    <path d="M 79.093852 256.32 
L 93.922106 256.32 
L 93.922106 86.304 
L 79.093852 86.304 
z
" clip-path="url(#pc1c46f5380)" style="fill: #ff7f0e; opacity: 0.5"/>
   </g>
   <g id="patch_7">
    <path d="M 93.922106 256.32 
L 108.750359 256.32 
L 108.750359 204.576 
L 93.922106 204.576 
z
" clip-path="url(#pc1c46f5380)" style="fill: #ff7f0e; opacity: 0.5"/>
   </g>
   <g id="patch_8">
    <path d="M 56.576874 256.32 
L 73.997326 256.32 
L 73.997326 241.536 
L 56.576874 241.536 
z
" clip-path="url(#pc1c46f5380)" style="fill: #2ca02c; opacity: 0.5"/>
   </g>
   <g id="patch_9">
    <path d="M 73.997326 256.32 
L 91.417778 256.32 
L 91.417778 197.184 
L 73.997326 197.184 
z
" clip-path="url(#pc1c46f5380)" style="fill: #2ca02c; opacity: 0.5"/>
   </g>
   <g id="patch_10">
    <path d="M 91.417778 256.32 
L 108.83823 256.32 
L 108.83823 167.616 
L 91.417778 167.616 
z
" clip-path="url(#pc1c46f5380)" style="fill: #2ca02c; opacity: 0.5"/>
   </g>
   <g id="patch_11">
    <path d="M 108.83823 256.32 
L 126.258682 256.32 
L 126.258682 182.4 
L 108.83823 182.4 
z
" clip-path="url(#pc1c46f5380)" style="fill: #2ca02c; opacity: 0.5"/>
   </g>
   <g id="patch_12">
    <path d="M 126.258682 256.32 
L 143.679135 256.32 
L 143.679135 123.264 
L 126.258682 123.264 
z
" clip-path="url(#pc1c46f5380)" style="fill: #2ca02c; opacity: 0.5"/>
   </g>
   <g id="matplotlib.axis_1">
    <g id="xtick_1">
     <g id="line2d_1">
      <defs>
       <path id="m0e78231af7" d="M 0 0 
L 0 3.5 
" style="stroke: #000000; stroke-width: 0.8"/>
      </defs>
      <g>
       <use xlink:href="#m0e78231af7" x="42.627332" y="256.32" style="stroke: #000000; stroke-width: 0.8"/>
      </g>
     </g>
     <g id="text_1">
      <!-- 0.40 -->
      <g transform="translate(31.494519 270.918437)scale(0.1 -0.1)">
       <defs>
        <path id="DejaVuSans-30" d="M 2034 4250 
Q 1547 4250 1301 3770 
Q 1056 3291 1056 2328 
Q 1056 1369 1301 889 
Q 1547 409 2034 409 
Q 2525 409 2770 889 
Q 3016 1369 3016 2328 
Q 3016 3291 2770 3770 
Q 2525 4250 2034 4250 
z
M 2034 4750 
Q 2819 4750 3233 4129 
Q 3647 3509 3647 2328 
Q 3647 1150 3233 529 
Q 2819 -91 2034 -91 
Q 1250 -91 836 529 
Q 422 1150 422 2328 
Q 422 3509 836 4129 
Q 1250 4750 2034 4750 
z
" transform="scale(0.015625)"/>
        <path id="DejaVuSans-2e" d="M 684 794 
L 1344 794 
L 1344 0 
L 684 0 
L 684 794 
z
" transform="scale(0.015625)"/>
        <path id="DejaVuSans-34" d="M 2419 4116 
L 825 1625 
L 2419 1625 
L 2419 4116 
z
M 2253 4666 
L 3047 4666 
L 3047 1625 
L 3713 1625 
L 3713 1100 
L 3047 1100 
L 3047 0 
L 2419 0 
L 2419 1100 
L 313 1100 
L 313 1709 
L 2253 4666 
z
" transform="scale(0.015625)"/>
       </defs>
       <use xlink:href="#DejaVuSans-30"/>
       <use xlink:href="#DejaVuSans-2e" x="63.623047"/>
       <use xlink:href="#DejaVuSans-34" x="95.410156"/>
       <use xlink:href="#DejaVuSans-30" x="159.033203"/>
      </g>
     </g>
    </g>
    <g id="xtick_2">
     <g id="line2d_2">
      <g>
       <use xlink:href="#m0e78231af7" x="97.54679" y="256.32" style="stroke: #000000; stroke-width: 0.8"/>
      </g>
     </g>
     <g id="text_2">
      <!-- 0.45 -->
      <g transform="translate(86.413977 270.918437)scale(0.1 -0.1)">
       <defs>
        <path id="DejaVuSans-35" d="M 691 4666 
L 3169 4666 
L 3169 4134 
L 1269 4134 
L 1269 2991 
Q 1406 3038 1543 3061 
Q 1681 3084 1819 3084 
Q 2600 3084 3056 2656 
Q 3513 2228 3513 1497 
Q 3513 744 3044 326 
Q 2575 -91 1722 -91 
Q 1428 -91 1123 -41 
Q 819 9 494 109 
L 494 744 
Q 775 591 1075 516 
Q 1375 441 1709 441 
Q 2250 441 2565 725 
Q 2881 1009 2881 1497 
Q 2881 1984 2565 2268 
Q 2250 2553 1709 2553 
Q 1456 2553 1204 2497 
Q 953 2441 691 2322 
L 691 4666 
z
" transform="scale(0.015625)"/>
       </defs>
       <use xlink:href="#DejaVuSans-30"/>
       <use xlink:href="#DejaVuSans-2e" x="63.623047"/>
       <use xlink:href="#DejaVuSans-34" x="95.410156"/>
       <use xlink:href="#DejaVuSans-35" x="159.033203"/>
      </g>
     </g>
    </g>
    <g id="xtick_3">
     <g id="line2d_3">
      <g>
       <use xlink:href="#m0e78231af7" x="152.466248" y="256.32" style="stroke: #000000; stroke-width: 0.8"/>
      </g>
     </g>
     <g id="text_3">
      <!-- 0.50 -->
      <g transform="translate(141.333435 270.918437)scale(0.1 -0.1)">
       <use xlink:href="#DejaVuSans-30"/>
       <use xlink:href="#DejaVuSans-2e" x="63.623047"/>
       <use xlink:href="#DejaVuSans-35" x="95.410156"/>
       <use xlink:href="#DejaVuSans-30" x="159.033203"/>
      </g>
     </g>
    </g>
   </g>
   <g id="matplotlib.axis_2">
    <g id="ytick_1">
     <g id="line2d_4">
      <defs>
       <path id="m529592a613" d="M 0 0 
L -3.5 0 
" style="stroke: #000000; stroke-width: 0.8"/>
      </defs>
      <g>
       <use xlink:href="#m529592a613" x="27" y="256.32" style="stroke: #000000; stroke-width: 0.8"/>
      </g>
     </g>
     <g id="text_4">
      <!-- 0 -->
      <g transform="translate(13.6375 260.119219)scale(0.1 -0.1)">
       <use xlink:href="#DejaVuSans-30"/>
      </g>
     </g>
    </g>
    <g id="ytick_2">
     <g id="line2d_5">
      <g>
       <use xlink:href="#m529592a613" x="27" y="219.36" style="stroke: #000000; stroke-width: 0.8"/>
      </g>
     </g>
     <g id="text_5">
      <!-- 5 -->
      <g transform="translate(13.6375 223.159219)scale(0.1 -0.1)">
       <use xlink:href="#DejaVuSans-35"/>
      </g>
     </g>
    </g>
    <g id="ytick_3">
     <g id="line2d_6">
      <g>
       <use xlink:href="#m529592a613" x="27" y="182.4" style="stroke: #000000; stroke-width: 0.8"/>
      </g>
     </g>
     <g id="text_6">
      <!-- 10 -->
      <g transform="translate(7.275 186.199219)scale(0.1 -0.1)">
       <defs>
        <path id="DejaVuSans-31" d="M 794 531 
L 1825 531 
L 1825 4091 
L 703 3866 
L 703 4441 
L 1819 4666 
L 2450 4666 
L 2450 531 
L 3481 531 
L 3481 0 
L 794 0 
L 794 531 
z
" transform="scale(0.015625)"/>
       </defs>
       <use xlink:href="#DejaVuSans-31"/>
       <use xlink:href="#DejaVuSans-30" x="63.623047"/>
      </g>
     </g>
    </g>
    <g id="ytick_4">
     <g id="line2d_7">
      <g>
       <use xlink:href="#m529592a613" x="27" y="145.44" style="stroke: #000000; stroke-width: 0.8"/>
      </g>
     </g>
     <g id="text_7">
      <!-- 15 -->
      <g transform="translate(7.275 149.239219)scale(0.1 -0.1)">
       <use xlink:href="#DejaVuSans-31"/>
       <use xlink:href="#DejaVuSans-35" x="63.623047"/>
      </g>
     </g>
    </g>
    <g id="ytick_5">
     <g id="line2d_8">
      <g>
       <use xlink:href="#m529592a613" x="27" y="108.48" style="stroke: #000000; stroke-width: 0.8"/>
      </g>
     </g>
     <g id="text_8">
      <!-- 20 -->
      <g transform="translate(7.275 112.279219)scale(0.1 -0.1)">
       <defs>
        <path id="DejaVuSans-32" d="M 1228 531 
L 3431 531 
L 3431 0 
L 469 0 
L 469 531 
Q 828 903 1448 1529 
Q 2069 2156 2228 2338 
Q 2531 2678 2651 2914 
Q 2772 3150 2772 3378 
Q 2772 3750 2511 3984 
Q 2250 4219 1831 4219 
Q 1534 4219 1204 4116 
Q 875 4013 500 3803 
L 500 4441 
Q 881 4594 1212 4672 
Q 1544 4750 1819 4750 
Q 2544 4750 2975 4387 
Q 3406 4025 3406 3419 
Q 3406 3131 3298 2873 
Q 3191 2616 2906 2266 
Q 2828 2175 2409 1742 
Q 1991 1309 1228 531 
z
" transform="scale(0.015625)"/>
       </defs>
       <use xlink:href="#DejaVuSans-32"/>
       <use xlink:href="#DejaVuSans-30" x="63.623047"/>
      </g>
     </g>
    </g>
    <g id="ytick_6">
     <g id="line2d_9">
      <g>
       <use xlink:href="#m529592a613" x="27" y="71.52" style="stroke: #000000; stroke-width: 0.8"/>
      </g>
     </g>
     <g id="text_9">
      <!-- 25 -->
      <g transform="translate(7.275 75.319219)scale(0.1 -0.1)">
       <use xlink:href="#DejaVuSans-32"/>
       <use xlink:href="#DejaVuSans-35" x="63.623047"/>
      </g>
     </g>
    </g>
    <g id="ytick_7">
     <g id="line2d_10">
      <g>
       <use xlink:href="#m529592a613" x="27" y="34.56" style="stroke: #000000; stroke-width: 0.8"/>
      </g>
     </g>
     <g id="text_10">
      <!-- 30 -->
      <g transform="translate(7.275 38.359219)scale(0.1 -0.1)">
       <defs>
        <path id="DejaVuSans-33" d="M 2597 2516 
Q 3050 2419 3304 2112 
Q 3559 1806 3559 1356 
Q 3559 666 3084 287 
Q 2609 -91 1734 -91 
Q 1441 -91 1130 -33 
Q 819 25 488 141 
L 488 750 
Q 750 597 1062 519 
Q 1375 441 1716 441 
Q 2309 441 2620 675 
Q 2931 909 2931 1356 
Q 2931 1769 2642 2001 
Q 2353 2234 1838 2234 
L 1294 2234 
L 1294 2753 
L 1863 2753 
Q 2328 2753 2575 2939 
Q 2822 3125 2822 3475 
Q 2822 3834 2567 4026 
Q 2313 4219 1838 4219 
Q 1578 4219 1281 4162 
Q 984 4106 628 3988 
L 628 4550 
Q 988 4650 1302 4700 
Q 1616 4750 1894 4750 
Q 2613 4750 3031 4423 
Q 3450 4097 3450 3541 
Q 3450 3153 3228 2886 
Q 3006 2619 2597 2516 
z
" transform="scale(0.015625)"/>
       </defs>
       <use xlink:href="#DejaVuSans-33"/>
       <use xlink:href="#DejaVuSans-30" x="63.623047"/>
      </g>
     </g>
    </g>
   </g>
   <g id="line2d_11">
    <path d="M 34.609091 256.246884 
L 35.710809 256.21573 
L 36.812526 256.172527 
L 37.914244 256.113141 
L 39.015961 256.032227 
L 40.117679 255.922959 
L 41.219397 255.77671 
L 42.321114 255.58271 
L 43.422832 255.327671 
L 44.524549 254.995404 
L 45.626267 254.566434 
L 46.727985 254.01765 
L 47.829702 253.322003 
L 48.93142 252.448299 
L 50.033137 251.361126 
L 51.134855 250.020952 
L 52.236573 248.384443 
L 53.33829 246.405049 
L 54.440008 244.033891 
L 55.541726 241.220978 
L 56.643443 237.916775 
L 57.745161 234.074115 
L 58.846878 229.650426 
L 59.948596 224.610227 
L 61.050314 218.927817 
L 62.152031 212.590031 
L 63.253749 205.598959 
L 64.355466 197.974441 
L 65.457184 189.756202 
L 66.558902 181.005425 
L 67.660619 171.805619 
L 68.762337 162.262626 
L 69.864055 152.503656 
L 70.965772 142.67528 
L 72.06749 132.940377 
L 73.169207 123.474066 
L 74.270925 114.458763 
L 75.372643 106.078516 
L 76.47436 98.512864 
L 77.576078 91.930507 
L 78.677795 86.483072 
L 79.779513 82.299328 
L 80.881231 79.480122 
L 81.982948 78.094345 
L 83.084666 78.176131 
L 84.186383 79.723461 
L 85.288101 82.698243 
L 86.389819 87.027877 
L 87.491536 92.608192 
L 88.593254 99.307616 
L 89.694972 106.972328 
L 90.796689 115.432113 
L 91.898407 124.506618 
L 93.000124 134.011681 
L 94.101842 143.765428 
L 95.20356 153.593869 
L 96.305277 163.335754 
L 97.406995 172.846531 
L 98.508712 182.001284 
L 99.61043 190.696622 
L 100.712148 198.851533 
L 101.813865 206.407274 
L 102.915583 213.326419 
L 104.0173 219.591212 
L 105.119018 225.201387 
L 106.220736 230.171637 
L 107.322453 234.528887 
L 108.424171 238.309532 
L 109.525889 241.556776 
L 110.627606 244.318153 
L 111.729324 246.643338 
L 112.831041 248.582267 
L 113.932759 250.183615 
L 115.034477 251.493614 
L 116.136194 252.555198 
L 117.237912 253.407453 
L 118.339629 254.085325 
L 119.441347 254.61954 
L 120.543065 255.036697 
L 121.644782 255.359489 
L 122.7465 255.607005 
L 123.848218 255.795095 
L 124.949935 255.936746 
L 126.051653 256.042475 
L 127.15337 256.12069 
L 128.255088 256.17804 
L 129.356806 256.21972 
L 130.458523 256.249746 
L 131.560241 256.271186 
L 132.661958 256.286363 
L 133.763676 256.297011 
L 134.865394 256.304418 
L 135.967111 256.309526 
L 137.068829 256.313017 
L 138.170546 256.315383 
L 139.272264 256.316972 
L 140.373982 256.318031 
L 141.475699 256.31873 
L 142.577417 256.319188 
L 143.679135 256.319485 
" clip-path="url(#pc1c46f5380)" style="fill: none; stroke: #ff7f0e; stroke-width: 1.5; stroke-linecap: square"/>
   </g>
   <g id="line2d_12">
    <path d="M 34.609091 244.411642 
L 36.146281 243.776641 
L 37.683471 243.114289 
L 39.220661 242.423813 
L 40.757851 241.704439 
L 42.295041 240.9554 
L 43.832231 240.175931 
L 45.369421 239.365278 
L 46.906612 238.522692 
L 48.443802 237.647438 
L 49.980992 236.738794 
L 51.518182 235.796051 
L 53.055372 234.818519 
L 54.592562 233.805528 
L 56.129752 232.756429 
L 57.666942 231.670597 
L 59.204132 230.547435 
L 60.741322 229.386372 
L 62.278512 228.186873 
L 63.815702 226.948434 
L 65.352893 225.670587 
L 66.890083 224.352905 
L 68.427273 222.995003 
L 69.964463 221.596537 
L 71.501653 220.157213 
L 73.038843 218.676785 
L 74.576033 217.155059 
L 76.113223 215.591896 
L 77.650413 213.987213 
L 79.187603 212.340987 
L 80.724793 210.653256 
L 82.261983 208.924122 
L 83.799174 207.153754 
L 85.336364 205.34239 
L 86.873554 203.490335 
L 88.410744 201.597972 
L 89.947934 199.665754 
L 91.485124 197.694211 
L 93.022314 195.683953 
L 94.559504 193.635665 
L 96.096694 191.550118 
L 97.633884 189.428159 
L 99.171074 187.270722 
L 100.708264 185.078823 
L 102.245455 182.853563 
L 103.782645 180.596126 
L 105.319835 178.307782 
L 106.857025 175.989888 
L 108.394215 173.643882 
L 109.931405 171.27129 
L 111.468595 168.873721 
L 113.005785 166.452866 
L 114.542975 164.010499 
L 116.080165 161.548477 
L 117.617355 159.068732 
L 119.154545 156.573277 
L 120.691736 154.064199 
L 122.228926 151.543661 
L 123.766116 149.013893 
L 125.303306 146.477196 
L 126.840496 143.935936 
L 128.377686 141.392541 
L 129.914876 138.849496 
L 131.452066 136.309344 
L 132.989256 133.774678 
L 134.526446 131.248137 
L 136.063636 128.732405 
L 137.600826 126.230204 
L 139.138017 123.744288 
L 140.675207 121.277442 
L 142.212397 118.832474 
L 143.749587 116.412213 
L 145.286777 114.019499 
L 146.823967 111.657181 
L 148.361157 109.328112 
L 149.898347 107.03514 
L 151.435537 104.781105 
L 152.972727 102.568835 
L 154.509917 100.401134 
L 156.047107 98.280782 
L 157.584298 96.210527 
L 159.121488 94.193079 
L 160.658678 92.231103 
L 162.195868 90.327217 
L 163.733058 88.483981 
L 165.270248 86.703896 
L 166.807438 84.989395 
L 168.344628 83.342838 
L 169.881818 81.76651 
L 171.419008 80.262611 
L 172.956198 78.833253 
L 174.493388 77.480456 
L 176.030579 76.206141 
L 177.567769 75.012129 
L 179.104959 73.900132 
L 180.642149 72.871752 
L 182.179339 71.928477 
L 183.716529 71.071676 
L 185.253719 70.302599 
L 186.790909 69.622368 
" clip-path="url(#pc1c46f5380)" style="fill: none; stroke: #2ca02c; stroke-width: 1.5; stroke-linecap: square"/>
   </g>
   <g id="line2d_13">
    <path d="M 83.816925 256.32 
L 83.816925 34.56 
" clip-path="url(#pc1c46f5380)" style="fill: none; stroke-dasharray: 5.55,2.4; stroke-dashoffset: 0; stroke: #000000; stroke-width: 1.5"/>
   </g>
   <g id="line2d_14">
    <path d="M 186.790909 256.32 
L 186.790909 34.56 
" clip-path="url(#pc1c46f5380)" style="fill: none; stroke-dasharray: 5.55,2.4; stroke-dashoffset: 0; stroke: #000000; stroke-width: 1.5"/>
   </g>
   <g id="patch_13">
    <path d="M 27 256.32 
L 27 34.56 
" style="fill: none; stroke: #000000; stroke-width: 0.8; stroke-linejoin: miter; stroke-linecap: square"/>
   </g>
   <g id="patch_14">
    <path d="M 194.4 256.32 
L 194.4 34.56 
" style="fill: none; stroke: #000000; stroke-width: 0.8; stroke-linejoin: miter; stroke-linecap: square"/>
   </g>
   <g id="patch_15">
    <path d="M 27 256.32 
L 194.4 256.32 
" style="fill: none; stroke: #000000; stroke-width: 0.8; stroke-linejoin: miter; stroke-linecap: square"/>
   </g>
   <g id="patch_16">
    <path d="M 27 34.56 
L 194.4 34.56 
" style="fill: none; stroke: #000000; stroke-width: 0.8; stroke-linejoin: miter; stroke-linecap: square"/>
   </g>
  </g>
 </g>
 <defs>
  <clipPath id="pc1c46f5380">
   <rect x="27" y="34.56" width="167.4" height="221.76"/>
  </clipPath>
 </defs>
</svg>
